<svg width="35" height="35" viewBox="0 0 35 35" fill="none" xmlns="http://www.w3.org/2000/svg">
<path d="M31.7996 14.6439H30.625V14.5834H17.5V20.4167H25.7417C24.5393 23.8124 21.3084 26.25 17.5 26.25C12.6678 26.25 8.74996 22.3322 8.74996 17.5C8.74996 12.6679 12.6678 8.75005 17.5 8.75005C19.7305 8.75005 21.7598 9.59151 23.3049 10.966L27.4298 6.84109C24.8252 4.4137 21.3412 2.91672 17.5 2.91672C9.44631 2.91672 2.91663 9.4464 2.91663 17.5C2.91663 25.5537 9.44631 32.0834 17.5 32.0834C25.5536 32.0834 32.0833 25.5537 32.0833 17.5C32.0833 16.5222 31.9827 15.5678 31.7996 14.6439Z" fill="#FFC107"/>
<path d="M4.59827 10.7122L9.38962 14.2261C10.6861 11.0163 13.8259 8.75005 17.5001 8.75005C19.7307 8.75005 21.7599 9.59151 23.305 10.966L27.4299 6.84109C24.8254 4.4137 21.3414 2.91672 17.5001 2.91672C11.8987 2.91672 7.04098 6.07911 4.59827 10.7122Z" fill="#FF3D00"/>
<path d="M17.4999 32.0833C21.2668 32.0833 24.6895 30.6418 27.2773 28.2975L22.7638 24.4781C21.2504 25.629 19.4012 26.2515 17.4999 26.25C13.7068 26.25 10.486 23.8313 9.27271 20.456L4.51709 24.1201C6.93063 28.8429 11.8321 32.0833 17.4999 32.0833Z" fill="#4CAF50"/>
<path d="M31.7997 14.6438H30.625V14.5833H17.5V20.4166H25.7418C25.1666 22.0328 24.1306 23.445 22.7617 24.4788L22.7639 24.4773L27.2774 28.2967C26.958 28.5869 32.0833 24.7916 32.0833 17.4999C32.0833 16.5221 31.9827 15.5677 31.7997 14.6438Z" fill="#1976D2"/>
</svg>
